<svg class="icon" viewBox="0 0 1024 1024" version="1.1" xmlns="http://www.w3.org/2000/svg"
     xmlns:xlink="http://www.w3.org/1999/xlink" width="128" height="128">
  <path
    d="M512.686401 683.848599a170.735509 170.735509 0 1 1 170.735509-170.735509 170.935457 170.935457 0 0 1-170.735509 170.735509z m507.867657-228.660415c-1.619578-14.376254-18.395206-25.193435-32.911424-25.193435a113.030546 113.030546 0 0 1-77.359841-196.728735 28.412596 28.412596 0 0 0 3.099192-38.589944 506.028136 506.028136 0 0 0-81.078871-81.978637 28.51257 28.51257 0 0 0-38.909861 3.139182c-30.512049 33.791194-85.317767 46.367917-127.666732 28.692523a113.710369 113.710369 0 0 1-69.141983-111.131041 28.412596 28.412596 0 0 0-25.113455-29.992185 511.126808 511.126808 0 0 0-115.169989-0.299921 28.47258 28.47258 0 0 0-25.353393 29.452325 113.970301 113.970301 0 0 1-70.101732 109.211541c-41.849095 17.095545-96.254917 4.638791-126.706982-28.852482a28.55256 28.55256 0 0 0-38.629934-3.239156 507.58773 507.58773 0 0 0-82.818419 81.858669 28.492575 28.492575 0 0 0 3.059203 38.909861A113.390452 113.390452 0 0 1 144.362381 358.073491c-17.655399 42.089032-61.344015 69.201967-111.370978 69.201967a27.832747 27.832747 0 0 0-29.572294 25.21343 513.72613 513.72613 0 0 0-0.219943 116.38967c1.619578 14.456233 18.895076 25.133451 33.571252 25.133451 44.568386-1.139703 87.377231 26.473101 105.332552 70.141722a113.850332 113.850332 0 0 1-28.632539 126.587013 28.452586 28.452586 0 0 0-3.119187 38.569949 509.487235 509.487235 0 0 0 80.978898 81.978638 28.47258 28.47258 0 0 0 38.969845-3.079198c30.632018-33.871174 85.417741-46.407907 127.606748-28.712518a113.510421 113.510421 0 0 1 69.261951 111.091052 28.412596 28.412596 0 0 0 25.113456 29.992184 509.067344 509.067344 0 0 0 115.169988 0.299922 28.47258 28.47258 0 0 0 25.333398-29.312362 113.750358 113.750358 0 0 1 69.981764-109.151556c42.109027-17.195519 96.314902-4.618796 126.766966 28.852481a28.592549 28.592549 0 0 0 38.629934 3.219161 510.027094 510.027094 0 0 0 82.818419-81.978637 28.432591 28.432591 0 0 0-3.059203-38.889866A113.430442 113.430442 0 0 1 879.290869 665.993252a114.590139 114.590139 0 0 1 104.712714-69.401915l6.338348 0.159958a28.47258 28.47258 0 0 0 29.992184-25.093461 511.586688 511.586688 0 0 0 0.199948-116.46965z"></path>
</svg>
